<svg width="25" height="9" viewBox="0 0 25 9" fill="none" xmlns="http://www.w3.org/2000/svg">
<path d="M1.41477 9H0.306818L3.51136 0.272727H4.60227L7.80682 9H6.69886L4.09091 1.65341H4.02273L1.41477 9ZM1.82386 5.59091H6.28977V6.52841H1.82386V5.59091ZM11.8594 9H9.16619V0.272727H11.9787C12.8253 0.272727 13.5497 0.447443 14.152 0.796875C14.7543 1.14347 15.2159 1.64205 15.5369 2.29261C15.858 2.94034 16.0185 3.71591 16.0185 4.61932C16.0185 5.52841 15.8565 6.31108 15.5327 6.96733C15.2088 7.62074 14.7372 8.12358 14.1179 8.47585C13.4986 8.82528 12.7457 9 11.8594 9ZM10.223 8.0625H11.7912C12.5128 8.0625 13.1108 7.9233 13.5852 7.64489C14.0597 7.36648 14.4134 6.97017 14.6463 6.45597C14.8793 5.94176 14.9957 5.32955 14.9957 4.61932C14.9957 3.91477 14.8807 3.30824 14.6506 2.79972C14.4205 2.28835 14.0767 1.89631 13.6193 1.62358C13.1619 1.34801 12.5923 1.21023 11.9105 1.21023H10.223V8.0625ZM20.4844 9H17.7912V0.272727H20.6037C21.4503 0.272727 22.1747 0.447443 22.777 0.796875C23.3793 1.14347 23.8409 1.64205 24.1619 2.29261C24.483 2.94034 24.6435 3.71591 24.6435 4.61932C24.6435 5.52841 24.4815 6.31108 24.1577 6.96733C23.8338 7.62074 23.3622 8.12358 22.7429 8.47585C22.1236 8.82528 21.3707 9 20.4844 9ZM18.848 8.0625H20.4162C21.1378 8.0625 21.7358 7.9233 22.2102 7.64489C22.6847 7.36648 23.0384 6.97017 23.2713 6.45597C23.5043 5.94176 23.6207 5.32955 23.6207 4.61932C23.6207 3.91477 23.5057 3.30824 23.2756 2.79972C23.0455 2.28835 22.7017 1.89631 22.2443 1.62358C21.7869 1.34801 21.2173 1.21023 20.5355 1.21023H18.848V8.0625Z" fill="white"/>
</svg>
